 <svg  version="1.0" xmlns="http://www.w3.org/2000/svg"  width="450.000000pt" height="289.000000pt" viewBox="0 0 450.000000 289.000000"  preserveAspectRatio="xMidYMid meet">  <g transform="translate(0.000000,289.000000) scale(0.100000,-0.100000)" fill="#d814ff" stroke="none"> <path d="M1211 1741 c-16 -4 -28 -17 -33 -36 -8 -32 -52 -85 -69 -85 -6 0 -24 9 -40 20 -24 18 -32 19 -51 9 -44 -22 -118 -103 -128 -139 -15 -56 -8 -200 11 -214 14 -9 14 -13 3 -24 -21 -19 -18 -85 4 -102 28 -22 53 -38 92 -58 19 -9 37 -20 38 -24 2 -5 12 -8 23 -8 10 0 19 -4 19 -10 0 -5 14 -10 30 -10 17 0 30 5 30 10 0 6 8 10 19 10 10 0 24 7 31 15 7 8 18 15 25 15 17 0 75 57 75 75 0 8 6 15 13 15 6 1 -3 14 -21 29 -33 29 -34 29 -30 105 2 42 2 76 0 76 -7 0 -82 -41 -82 -45 0 -2 14 -11 30 -20 24 -13 30 -22 30 -50 l0 -34 -127 75 c-70 41 -131 74 -134 74 -4 0 -5 -27 -2 -60 3 -33 3 -60 0 -60 -3 0 -18 5 -32 12 -24 11 -25 14 -25 110 0 54 2 98 5 98 2 0 19 -9 37 -20 42 -25 46 -25 41 3 -3 14 4 33 16 47 18 21 22 23 31 10 6 -8 9 -35 8 -61 -1 -25 2 -50 6 -57 16 -26 26 -10 26 39 0 42 3 49 13 40 10 -8 17 -7 25 1 9 9 12 -1 12 -45 0 -55 1 -57 20 -47 17 9 20 21 20 74 0 54 3 66 25 86 l25 23 0 -71 0 -71 34 20 c19 11 40 27 48 36 11 14 9 15 -18 9 -28 -6 -32 -4 -38 19 -8 31 1 68 14 60 5 -3 18 0 30 7 15 10 20 23 20 59 0 68 -30 90 -99 70z m79 -73 c0 -51 0 -51 -20 -33 -20 18 -22 18 -93 -53 l-73 -72 -34 35 -34 35 -41 -39 c-33 -33 -43 -38 -59 -29 -16 9 -13 16 40 69 l58 59 37 -36 36 -35 57 56 c55 55 56 58 40 76 -17 18 -15 19 34 19 l52 0 0 -52z m-269 -308 c10 -6 19 -19 19 -29 0 -13 29 -36 98 -75 150 -85 145 -74 52 -128 l-80 -46 -99 56 c-95 54 -100 59 -101 90 0 17 2 32 4 32 1 0 46 -25 99 -55 86 -50 98 -54 121 -43 14 6 26 14 26 17 0 3 -38 26 -85 51 l-85 45 0 48 c0 51 1 52 31 37z"/> <path d="M1406 1551 c-12 -13 -16 -36 -15 -97 1 -70 15 -165 18 -123 1 15 86 16 1021 15 561 0 1020 -4 1020 -8 0 -5 -457 -8 -1015 -8 -670 0 -1015 -3 -1015 -10 0 -6 90 -10 250 -10 l249 0 7 -35 c4 -23 13 -37 28 -41 32 -10 216 -12 222 -3 3 5 13 5 22 0 22 -11 268 -4 292 9 13 7 20 6 23 -3 5 -16 199 -20 209 -3 6 8 8 7 8 -2 0 -8 11 -11 30 -10 17 1 30 6 30 10 0 4 7 8 15 8 8 0 15 -4 15 -9 0 -5 25 -8 55 -7 l55 1 -6 30 c-10 48 -10 50 6 50 10 0 14 -8 13 -22 -2 -13 2 -23 7 -23 6 0 10 -8 10 -19 0 -17 8 -18 85 -18 75 1 85 3 85 19 0 10 7 18 15 18 14 0 19 -12 16 -33 -1 -10 22 -4 31 8 5 6 8 6 8 -1 0 -7 31 -10 90 -10 50 1 90 -2 90 -6 0 -4 7 -5 15 -2 8 4 12 11 8 17 -3 6 -1 7 5 3 16 -10 15 5 -2 27 -14 18 -14 18 -19 0 -3 -12 -5 -10 -6 8 -1 24 2 26 39 26 37 0 40 -2 40 -29 0 -21 -6 -31 -25 -38 -34 -13 -32 -32 3 -24 50 13 62 46 38 105 -8 21 -13 62 -11 107 3 84 -5 93 -78 93 -23 0 -55 0 -72 1 -16 0 -52 -1 -80 -3 -27 -1 -80 1 -117 5 -53 6 -67 11 -71 27 -9 33 -38 35 -65 4 -25 -30 -41 -34 -152 -36 -109 -3 -126 0 -156 26 -61 52 -97 26 -100 -74 -3 -101 -3 -101 -23 -101 -19 0 -31 34 -31 90 0 51 -24 61 -145 58 l-108 -3 -17 30 c-11 20 -26 31 -43 33 -23 3 -30 -2 -42 -30 -12 -31 -17 -34 -49 -30 -23 3 -40 12 -51 28 -17 26 -62 33 -82 13 -8 -8 -17 -7 -34 2 -58 32 -91 0 -89 -86 3 -109 4 -105 -35 -105 -32 0 -35 2 -25 19 16 31 12 76 -11 105 -19 24 -26 26 -87 24 -84 -2 -131 8 -158 33 -30 28 -116 35 -138 10z m820 -32 c-3 -17 -6 -56 -6 -85 0 -41 -4 -54 -15 -54 -12 0 -15 14 -15 69 0 38 -3 76 -6 85 -5 12 0 16 21 16 25 0 27 -2 21 -31z m804 11 c0 -13 -7 -20 -20 -20 -19 0 -27 20 -13 33 13 14 33 6 33 -13z m-1500 -10 c24 -24 24 -29 4 -58 -10 -14 -25 -22 -45 -22 -26 0 -29 -3 -29 -34 0 -30 -2 -33 -25 -28 -24 4 -25 7 -25 83 l0 79 50 0 c37 0 55 -5 70 -20z m419 -22 l19 -43 17 43 c13 33 22 42 41 42 23 0 24 -2 24 -80 0 -79 0 -80 -25 -80 -23 0 -25 4 -26 48 l0 47 -22 -54 c-17 -44 -22 -51 -29 -35 -4 10 -14 35 -22 54 l-14 35 -1 -53 c-1 -38 -5 -52 -13 -49 -9 2 -13 29 -13 85 0 79 1 82 23 82 17 0 27 -10 41 -42z m701 -38 c0 -79 0 -80 -25 -80 -25 0 -25 1 -25 80 0 79 0 80 25 80 25 0 25 -1 25 -80z m-1004 16 c16 -13 17 -18 6 -36 -11 -19 -11 -25 2 -39 18 -20 12 -32 -12 -24 -26 10 -32 25 -26 61 4 20 2 32 -5 32 -6 0 -11 -18 -11 -44 0 -41 -17 -65 -34 -49 -8 9 -8 98 1 106 11 12 59 7 79 -7z m124 -6 c11 -11 20 -29 20 -40 0 -25 -34 -60 -59 -60 -44 0 -71 58 -47 95 20 31 58 33 86 5z m381 -37 c17 -52 17 -53 -2 -53 -10 0 -19 5 -19 10 0 16 -32 11 -46 -7 -19 -26 -18 1 2 61 21 61 42 57 65 -11z m129 52 c0 -3 -5 -13 -11 -23 -9 -14 -8 -26 6 -51 9 -18 14 -35 11 -38 -10 -10 -36 7 -47 31 -14 30 4 86 27 86 8 0 14 -2 14 -5z m100 -4 c0 -5 -9 -11 -20 -14 -11 -3 -20 -10 -20 -16 0 -6 9 -11 20 -11 11 0 20 -4 20 -10 0 -5 -9 -10 -20 -10 -11 0 -20 -4 -20 -10 0 -5 9 -10 20 -10 11 0 20 -7 20 -15 0 -17 -18 -19 -54 -5 -22 8 -26 16 -26 53 0 24 3 47 7 50 10 10 73 8 73 -2z m106 -5 c16 -12 17 -18 7 -34 -9 -16 -9 -24 2 -38 18 -24 19 -34 1 -34 -29 0 -47 30 -40 66 4 22 2 34 -5 34 -6 0 -11 -19 -11 -45 0 -37 -3 -45 -19 -45 -16 0 -18 8 -19 55 l0 55 32 0 c18 0 41 -6 52 -14z m248 -13 l15 -28 1 28 c0 15 5 27 10 27 6 0 10 -27 10 -60 0 -69 -11 -76 -41 -25 -26 43 -31 44 -27 3 2 -18 -2 -33 -9 -35 -9 -3 -13 11 -13 50 0 29 3 57 7 60 14 14 33 6 47 -20z m131 17 c3 -5 -3 -10 -14 -10 -27 0 -27 -16 -1 -23 31 -8 27 -55 -7 -68 -28 -10 -53 -6 -53 10 0 5 12 11 28 13 l27 4 -27 14 c-30 14 -36 38 -16 58 15 15 54 16 63 2z m115 -5 c0 -8 -7 -15 -15 -15 -11 0 -15 -11 -15 -39 0 -30 -4 -40 -20 -44 -18 -5 -20 0 -20 39 0 32 -4 44 -15 44 -8 0 -15 7 -15 15 0 11 12 15 50 15 38 0 50 -4 50 -15z m50 -46 c0 -52 -2 -60 -17 -57 -14 2 -19 15 -21 61 -3 52 -1 57 18 57 18 0 20 -6 20 -61z m110 46 c0 -8 -7 -15 -16 -15 -12 0 -15 -9 -12 -42 3 -37 0 -43 -17 -43 -17 0 -20 6 -17 43 3 33 0 42 -12 42 -9 0 -16 7 -16 15 0 11 12 15 45 15 33 0 45 -4 45 -15z m60 -31 c0 -32 4 -44 13 -41 6 2 12 21 13 42 0 21 6 41 12 43 8 2 12 -13 12 -47 0 -46 -3 -53 -26 -63 -40 -19 -58 -1 -62 61 -3 46 -1 51 17 51 18 0 21 -6 21 -46z m160 31 c0 -8 -7 -15 -15 -15 -11 0 -15 -12 -15 -45 0 -48 0 -48 -24 -39 -11 4 -16 19 -16 45 0 28 -4 39 -15 39 -8 0 -15 7 -15 15 0 11 12 15 50 15 38 0 50 -4 50 -15z m94 0 c-4 -9 -13 -14 -22 -13 -8 2 -17 -3 -19 -9 -3 -8 4 -13 16 -13 12 0 21 -4 21 -10 0 -5 -9 -10 -20 -10 -11 0 -20 -4 -20 -10 0 -5 9 -10 20 -10 11 0 20 -7 20 -15 0 -17 -18 -19 -54 -5 -21 8 -26 16 -26 44 0 56 8 66 51 66 30 0 37 -3 33 -15z m-1920 -81 c10 -27 7 -34 -19 -34 -20 0 -25 5 -25 25 0 29 34 36 44 9z m466 -84 c0 -5 -5 -10 -12 -10 -6 0 -4 -6 7 -13 23 -17 12 -37 -21 -37 -30 0 -32 20 -1 21 l22 0 -24 10 c-19 8 -21 12 -11 24 14 17 40 20 40 5z m162 -14 c3 2 5 -5 5 -18 0 -21 -4 -23 -58 -25 -52 -1 -59 1 -59 17 0 24 20 37 30 20 6 -9 9 -9 15 0 4 6 13 9 21 6 9 -3 14 1 14 12 1 16 1 16 14 0 7 -10 15 -15 18 -12z m88 7 c0 26 20 10 20 -16 0 -18 2 -19 10 -7 5 8 24 15 42 16 18 1 34 7 36 13 6 17 22 13 22 -5 0 -9 5 -12 12 -8 8 5 9 1 5 -12 -7 -18 -6 -18 7 -1 16 21 36 22 36 2 0 -8 1 -18 3 -22 1 -5 -17 -8 -40 -9 -30 -1 -43 3 -43 12 0 8 -4 14 -10 14 -5 0 -10 -7 -10 -15 0 -23 -80 -21 -81 3 -1 16 -2 16 -6 0 -5 -21 -23 -24 -23 -5 0 8 -3 7 -10 -3 -15 -24 -21 -6 -9 29 10 29 12 30 25 14 13 -17 13 -17 14 0z m306 -10 c-2 -16 -1 -20 1 -10 5 20 63 25 63 5 0 -8 3 -9 8 -3 4 6 17 11 30 13 18 3 22 -2 22 -22 0 -28 -18 -34 -38 -14 -9 9 -12 9 -12 0 0 -19 -20 -14 -21 6 -1 14 -2 13 -7 -3 -5 -20 -5 -20 -13 0 -6 17 -8 17 -8 3 -1 -13 -9 -18 -29 -18 -25 0 -28 3 -28 35 0 27 4 35 18 35 13 0 17 -7 14 -27z m556 -13 c-3 -24 -9 -30 -26 -27 -11 1 -27 6 -33 10 -8 5 -13 3 -13 -3 0 -6 -12 -10 -27 -8 -20 2 -28 9 -28 23 0 29 35 33 36 3 l2 -23 4 23 c4 19 9 23 28 18 15 -4 29 -1 37 8 18 20 25 12 20 -24z m100 30 c2 -6 22 -13 46 -15 34 -3 42 0 43 13 1 11 4 7 9 -8 4 -14 8 -19 9 -12 1 6 8 12 16 12 10 0 15 -9 14 -27 0 -25 -1 -26 -9 -8 -7 17 -9 17 -9 3 -1 -24 -79 -26 -87 -3 -8 20 -21 19 -27 -2 -3 -11 -5 -7 -6 10 -1 15 -7 27 -15 27 -9 0 -12 -8 -8 -25 2 -15 0 -25 -7 -25 -6 0 -11 11 -11 25 0 14 -4 25 -10 25 -5 0 -10 5 -10 10 0 13 57 13 62 0z m160 -25 c-2 -19 -6 -35 -8 -35 -2 0 -4 16 -4 35 0 19 4 35 8 35 4 0 6 -16 4 -35z m-1339 -14 l-6 -25 -9 23 c-9 25 -1 48 13 34 5 -5 6 -19 2 -32z m449 3 c-5 -30 -18 -31 -25 -2 -7 26 -1 39 17 32 8 -3 11 -15 8 -30z m307 25 c13 1 28 -3 32 -11 7 -10 9 -10 9 0 0 19 30 14 31 -5 1 -17 2 -17 6 0 6 24 37 18 41 -8 2 -18 -3 -20 -45 -21 -34 0 -50 4 -55 15 -5 13 -7 12 -8 -4 -1 -20 -1 -20 -10 0 -7 17 -9 17 -9 3 -1 -10 -5 -18 -11 -18 -5 0 -10 8 -11 18 0 15 -1 14 -8 -2 -7 -19 -8 -18 -16 5 l-8 24 -4 -22 c-6 -31 -33 -30 -33 1 0 19 6 25 28 28 15 2 32 1 37 -1 6 -3 21 -4 34 -2z"/> <path d="M1460 1491 c0 -33 6 -37 30 -21 11 7 12 14 4 27 -18 30 -34 27 -34 -6z"/> <path d="M1715 1450 c-7 -22 2 -60 15 -60 11 0 19 36 13 60 -3 11 -9 20 -13 20 -5 0 -12 -9 -15 -20z"/> <path d="M1310 1365 c0 -80 4 -145 9 -145 15 0 21 41 21 145 0 104 -6 145 -21 145 -5 0 -9 -65 -9 -145z"/> </g> </svg> 